#!OML:ASF E:\emotionWalksFemale\Project 1\Capture day 1\Session 1\Female1.ASF
:FULLY-SPECIFIED
:DEGREES
350
root 8.7169 17.1864 21.7513 -174.254 -37.032 -179.637
lowerback 2.29052 2.67054 0.695998
upperback -5.31186 3.47743 0.0275858
thorax -6.76805 1.61926 -0.633945
lowerneck -11.8224 7.93426 3.65077
upperneck 10.2167 10.5441 -3.79909
head 5.40307 5.02043 -0.891306
rclavicle 1.30645e-013 3.77691e-015
rhumerus -55.2559 19.5794 -101.604
rradius 32.162
rwrist 26.262
rhand 0.985637 -59.7214
rfingers 7.12502
rthumb -153.466 -267.883
lclavicle 1.30645e-013 3.77691e-015
lhumerus -50.1356 0.731375 81.8608
lradius 28.1851
lwrist -26.9377
lhand 4.35881 -34.2028
lfingers 7.12502
lthumb 29.7582 -6.57203
rfemur -1.99022 6.05873 28.6727
rtibia 15.07
rfoot -12.7354 -44.8175
rtoes 42.4282
lfemur -13.2558 -29.1752 -18.8508
ltibia 18.1378
lfoot 9.94112 11.3833
ltoes 29.3784
351
root 8.71157 17.3769 21.73 -173.713 -38.7227 -179.947
lowerback 1.78064 2.56657 0.750952
upperback -5.36305 3.32527 -0.0313803
thorax -6.52279 1.53929 -0.689879
lowerneck -11.8046 8.15655 3.77385
upperneck 10.5131 10.8847 -4.18653
head 5.5352 5.15627 -0.990907
rclavicle -1.52393e-013 -1.5704e-014
rhumerus -56.326 20.219 -102.282
rradius 33.0533
rwrist 22.8115
rhand -0.0345679 -60.1943
rfingers 7.12502
rthumb -154.443 -268.5
lclavicle -1.52393e-013 -1.5704e-014
lhumerus -49.835 0.886893 81.8585
lradius 27.7804
lwrist -27.3456
lhand 7.19347 -32.9595
lfingers 7.12502
lthumb 32.4598 -5.84688
rfemur -2.61796 8.0854 28.2337
rtibia 15.3731
rfoot -13.2261 -45.4296
rtoes 45.7141
lfemur -13.5055 -30.3974 -18.9379
ltibia 17.3282
lfoot 7.79912 14.9529
ltoes 29.7013
352
root 8.70519 17.5353 21.731 -172.731 -40.3267 -180.635
lowerback 1.80658 2.49154 1.07568
upperback -5.79439 3.19652 -0.475698
thorax -6.95623 1.42844 -1.33559
lowerneck -11.7238 8.37245 3.99154
upperneck 10.9306 11.1634 -4.2216
head 5.67829 5.29133 -1.00223
rclavicle 4.50993e-015 7.55382e-015
rhumerus -57.4992 19.8815 -102.786
rradius 33.7765
rwrist 20.2319
rhand -0.85011 -60.0536
rfingers 7.12502
rthumb -155.224 -268.469
lclavicle 4.50993e-015 7.55382e-015
lhumerus -50.0674 0.486575 81.6745
lradius 27.7077
lwrist -27.7861
lhand 10.3109 -31.9057
lfingers 7.12502
lthumb 35.4212 -5.4491
rfemur -3.83339 9.16936 27.3155
rtibia 16.2268
rfoot -10.226 -44.7824
rtoes 46.8146
lfemur -13.4772 -29.4855 -19.8447
ltibia 16.6494
lfoot 5.20667 16.9339
ltoes 25.5787
353
root 8.6965 17.6807 21.7478 -172.223 -42.0388 -180.797
lowerback 1.64744 2.41567 1.71109
upperback -5.89494 3.11469 -0.591925
thorax -6.9343 1.34638 -1.79921
lowerneck -11.7213 8.61024 3.98305
upperneck 11.0116 11.5327 -4.5391
head 5.73778 5.44321 -1.06077
rclavicle 6.63568e-014 4.96962e-015
rhumerus -58.2186 19.8983 -102.821
rradius 34.286
rwrist 17.6918
rhand -1.83909 -59.9387
rfingers 7.12502
rthumb -156.172 -268.481
lclavicle 6.63568e-014 4.96962e-015
lhumerus -49.7296 0.396348 81.8587
lradius 27.4805
lwrist -28.7823
lhand 13.1594 -30.6601
lfingers 7.12502
lthumb 38.1164 -4.89259
rfemur -5.11443 9.36831 26.8081
rtibia 17.3487
rfoot -4.22885 -43.1857
rtoes 44.9066
lfemur -13.4103 -29.0965 -20.2316
ltibia 16.0564
lfoot -1.7309 19.355
ltoes 38.9536
354
root 8.70039 17.8117 21.7476 -171.666 -43.983 -181.229
lowerback 1.56227 2.23915 1.84304
upperback -5.93246 2.87725 -0.68731
thorax -6.92375 1.21841 -1.95238
lowerneck -11.4662 8.70956 4.29572
upperneck 10.9536 11.6847 -5.02094
head 5.73248 5.4989 -1.25208
rclavicle 6.78353e-015 0
rhumerus -58.8455 19.7463 -102.679
rradius 34.644
rwrist 16.0774
rhand -2.49026 -59.9034
rfingers 7.12502
rthumb -156.797 -268.526
lclavicle 6.78353e-015 0
lhumerus -49.0791 0.472903 81.9827
lradius 26.9356
lwrist -30.2586
lhand 15.6426 -29.4383
lfingers 7.12502
lthumb 40.4562 -4.35146
rfemur -6.17984 9.66596 26.3157
rtibia 18.4754
rfoot 1.60507 -41.2042
rtoes 41.4805
lfemur -13.1623 -27.5089 -21.0332
ltibia 15.5899
lfoot -6.01197 20.1241
ltoes 43.1251
355
root 8.70977 17.9381 21.7554 -170.945 -45.8763 -181.635
lowerback 2.07725 2.00509 2.74286
upperback -6.35302 2.57874 -1.21833
thorax -7.63054 0.974033 -3.02225
lowerneck -10.9851 8.83004 4.72878
upperneck 10.8616 11.7936 -5.04913
head 5.65584 5.57999 -1.33756
rclavicle 9.3143e-014 -2.93207e-015
rhumerus -59.5681 18.8765 -102.796
rradius 34.7086
rwrist 15.9495
rhand -2.31363 -59.4015
rfingers 7.12502
rthumb -156.627 -268.002
lclavicle 9.3143e-014 -2.93207e-015
lhumerus -48.9314 0.057223 81.5427
lradius 26.5865
lwrist -31.6527
lhand 17.8086 -28.9268
lfingers 7.12502
lthumb 42.4885 -4.5025
rfemur -7.33343 9.5458 25.8118
rtibia 19.1686
rfoot 3.9135 -39.0316
rtoes 38.5175
lfemur -13.3196 -24.8081 -21.9511
ltibia 15.5127
lfoot -5.27909 21.2602
ltoes 34.7375
356
root 8.72256 18.0604 21.7675 -170.398 -47.7513 -181.866
lowerback 2.27748 1.85483 3.05174
upperback -6.46613 2.40574 -1.16577
thorax -7.87409 0.863607 -3.13723
lowerneck -10.8733 8.88282 4.59818
upperneck 10.8247 11.9162 -5.267
head 5.63788 5.62004 -1.37843
rclavicle -2.60222e-014 4.37326e-015
rhumerus -59.9376 18.4034 -101.86
rradius 34.72
rwrist 16.0477
rhand -1.77935 -58.5186
rfingers 7.12502
rthumb -156.115 -267.053
lclavicle -2.60222e-014 4.37326e-015
lhumerus -48.4763 0.00423828 81.9233
lradius 26.2776
lwrist -33.1925
lhand 19.398 -28.8901
lfingers 7.12502
lthumb 43.9739 -4.99751
rfemur -8.31977 9.39526 25.4809
rtibia 19.6071
rfoot 4.28098 -37.0774
rtoes 31.6077
lfemur -13.5002 -23.0858 -22.5753
ltibia 15.5936
lfoot -3.87437 22.2495
ltoes 28.7924
357
root 8.74155 18.1698 21.7708 -170.266 -49.7269 -181.872
lowerback 2.65471 1.64049 3.44986
upperback -6.47267 2.16916 -1.10958
thorax -8.11119 0.721175 -3.2959
lowerneck -10.9517 8.88716 4.66695
upperneck 10.8751 11.942 -5.49579
head 5.68707 5.6158 -1.45131
rclavicle -4.48881e-014 1.07344e-014
rhumerus -60.1919 17.8826 -100.955
rradius 34.5783
rwrist 16.5202
rhand -1.37413 -57.2574
rfingers 7.12502
rthumb -155.726 -265.741
lclavicle -4.48881e-014 1.07344e-014
lhumerus -47.98 -0.380221 82.3817
lradius 26.099
lwrist -34.1309
lhand 20.7438 -28.6377
lfingers 7.12502
lthumb 45.2274 -5.22824
rfemur -8.85249 9.67805 25.4219
rtibia 19.7154
rfoot 5.55537 -36.0974
rtoes 31.0676
lfemur -13.5029 -22.1117 -22.9035
ltibia 15.8712
lfoot -3.3548 22.6132
ltoes 30.453
358
root 8.76525 18.2664 21.7638 -170.362 -51.7732 -181.784
lowerback 3.10702 1.35721 3.66973
upperback -6.43429 1.84166 -0.972821
thorax -8.36192 0.549844 -3.25944
lowerneck -10.9087 8.87139 4.77411
upperneck 10.8226 11.9388 -5.76659
head 5.68729 5.60065 -1.55319
rclavicle 1.51573e-015 -4.17448e-015
rhumerus -60.4975 17.4706 -100.075
rradius 34.3176
rwrist 17.6134
rhand -0.974676 -55.4389
rfingers 7.12502
rthumb -155.344 -263.871
lclavicle 1.51573e-015 -4.17448e-015
lhumerus -47.59 -0.912764 82.9204
lradius 26.1148
lwrist -34.5957
lhand 22.1157 -28.3908
lfingers 7.12502
lthumb 46.5006 -5.50773
rfemur -9.04141 10.655 25.4636
rtibia 19.4733
rfoot 6.59011 -35.9282
rtoes 29.4549
lfemur -13.4288 -21.1581 -23.147
ltibia 16.3606
lfoot -3.81296 22.5518
ltoes 36.5471
359
root 8.78467 18.363 21.7664 -170.39 -53.6195 -181.669
lowerback 3.57038 1.15922 4.09103
upperback -6.41617 1.64481 -0.859394
thorax -8.62781 0.426873 -3.37035
lowerneck -10.2998 8.78661 5.10015
upperneck 10.1496 11.8581 -6.54495
head 5.44032 5.54594 -1.88707
rclavicle 7.57742e-014 4.96962e-015
rhumerus -60.7309 17.032 -99.0784
rradius 33.9848
rwrist 19.3922
rhand -0.43326 -53.637
rfingers 7.12502
rthumb -154.825 -261.997
lclavicle 7.57742e-014 4.96962e-015
lhumerus -47.1786 -1.6519 83.6576
lradius 26.168
lwrist -34.7978
lhand 23.1839 -28.2875
lfingers 7.12502
lthumb 47.4888 -5.83961
rfemur -9.33663 12.103 25.3192
rtibia 19.0573
rfoot 8.71957 -35.759
rtoes 25.4566
lfemur -13.5199 -20.4961 -23.3392
ltibia 16.9109
lfoot -3.57418 22.881
ltoes 38.0461
360
root 8.80013 18.4536 21.7859 -170.399 -55.332 -181.353
lowerback 4.00625 1.08412 4.96346
upperback -6.42906 1.65051 -0.775877
thorax -8.888 0.368881 -3.78593
lowerneck -10.7718 8.58984 4.49024
upperneck 10.3345 11.6393 -6.23248
head 5.50881 5.42289 -1.69763
rclavicle 7.72278e-014 -8.54774e-015
rhumerus -60.7509 16.5339 -97.8832
rradius 33.4595
rwrist 21.9252
rhand -0.0877065 -52.2589
rfingers 7.12502
rthumb -154.494 -260.572
lclavicle 7.72278e-014 -8.54774e-015
lhumerus -46.6406 -2.64991 84.6113
lradius 26.1998
lwrist -34.7511
lhand 23.6634 -27.9508
lfingers 7.12502
lthumb 47.9313 -5.70597
rfemur -9.95526 13.2264 25.0703
rtibia 18.6524
rfoot 11.7744 -34.6101
rtoes 18.6719
lfemur -13.8548 -19.7141 -23.4326
ltibia 17.3698
lfoot -1.7481 23.9105
ltoes 23.8104
